<svg xmlns="http://www.w3.org/2000/svg" xmlns:xlink="http://www.w3.org/1999/xlink" width="600" height="660"><desc>Flag of Canton of Valais (Wallis)</desc><defs><linearGradient id="a"><stop offset="0" style="stop-color:#000;stop-opacity:1"/><stop offset="1" style="stop-color:#000;stop-opacity:0"/></linearGradient><linearGradient id="b"><stop offset="0" style="stop-color:white;stop-opacity:.3137255"/><stop offset=".19" style="stop-color:white;stop-opacity:.25098041"/><stop offset=".6" style="stop-color:#6b6b6b;stop-opacity:.1254902"/><stop offset="1" style="stop-color:black;stop-opacity:.1254902"/></linearGradient><linearGradient xlink:href="#a" id="c" x1="599.832" x2="721.008" y1="264.346" y2="264.346" gradientUnits="userSpaceOnUse"/><linearGradient xlink:href="#a" id="h" x1="599.832" x2="721.008" y1="264.346" y2="264.346" gradientUnits="userSpaceOnUse"/><linearGradient xlink:href="#a" id="i" x1="599.832" x2="721.008" y1="264.346" y2="264.346" gradientUnits="userSpaceOnUse"/><linearGradient xlink:href="#a" id="j" x1="599.832" x2="721.008" y1="264.346" y2="264.346" gradientTransform="translate(-6.245 -3.801)" gradientUnits="userSpaceOnUse"/><linearGradient xlink:href="#a" id="k" x1="599.832" x2="721.008" y1="264.346" y2="264.346" gradientTransform="translate(-6.245 -3.801)" gradientUnits="userSpaceOnUse"/><linearGradient xlink:href="#a" id="l" x1="599.832" x2="721.008" y1="264.346" y2="264.346" gradientUnits="userSpaceOnUse"/><linearGradient xlink:href="#a" id="m" x1="599.832" x2="721.008" y1="264.346" y2="264.346" gradientUnits="userSpaceOnUse"/><linearGradient xlink:href="#a" id="n" x1="599.832" x2="721.008" y1="264.346" y2="264.346" gradientUnits="userSpaceOnUse"/><linearGradient xlink:href="#a" id="o" x1="599.832" x2="721.008" y1="264.346" y2="264.346" gradientUnits="userSpaceOnUse"/><linearGradient xlink:href="#a" id="p" x1="599.832" x2="721.008" y1="264.346" y2="264.346" gradientUnits="userSpaceOnUse"/><linearGradient xlink:href="#a" id="q" x1="599.832" x2="721.008" y1="264.346" y2="264.346" gradientUnits="userSpaceOnUse"/><linearGradient xlink:href="#a" id="r" x1="599.832" x2="721.008" y1="264.346" y2="264.346" gradientUnits="userSpaceOnUse"/><linearGradient xlink:href="#a" id="s" x1="599.832" x2="721.008" y1="264.346" y2="264.346" gradientUnits="userSpaceOnUse"/><linearGradient xlink:href="#a" id="t" x1="599.832" x2="721.008" y1="264.346" y2="264.346" gradientUnits="userSpaceOnUse"/><linearGradient xlink:href="#a" id="u" x1="599.832" x2="721.008" y1="264.346" y2="264.346" gradientUnits="userSpaceOnUse"/><linearGradient xlink:href="#a" id="v" x1="599.832" x2="721.008" y1="264.346" y2="264.346" gradientUnits="userSpaceOnUse"/><linearGradient xlink:href="#a" id="w" x1="599.832" x2="721.008" y1="264.346" y2="264.346" gradientUnits="userSpaceOnUse"/><linearGradient xlink:href="#a" id="x" x1="599.832" x2="721.008" y1="264.346" y2="264.346" gradientUnits="userSpaceOnUse"/><linearGradient xlink:href="#a" id="y" x1="599.832" x2="721.008" y1="264.346" y2="264.346" gradientUnits="userSpaceOnUse"/><linearGradient xlink:href="#a" id="z" x1="599.832" x2="721.008" y1="264.346" y2="264.346" gradientUnits="userSpaceOnUse"/><linearGradient xlink:href="#a" id="A" x1="599.832" x2="721.008" y1="264.346" y2="264.346" gradientUnits="userSpaceOnUse"/><linearGradient xlink:href="#a" id="B" x1="599.832" x2="721.008" y1="264.346" y2="264.346" gradientUnits="userSpaceOnUse"/><linearGradient xlink:href="#a" id="C" x1="599.832" x2="721.008" y1="264.346" y2="264.346" gradientUnits="userSpaceOnUse"/><linearGradient xlink:href="#a" id="g" x1="599.832" x2="721.008" y1="264.346" y2="264.346" gradientUnits="userSpaceOnUse"/><linearGradient xlink:href="#a" id="f" x1="599.832" x2="721.008" y1="264.346" y2="264.346" gradientUnits="userSpaceOnUse"/><linearGradient xlink:href="#a" id="e" x1="599.832" x2="721.008" y1="264.346" y2="264.346" gradientUnits="userSpaceOnUse"/><linearGradient xlink:href="#a" id="D" x1="599.832" x2="721.008" y1="264.346" y2="264.346" gradientTransform="translate(-1.81 1.474)" gradientUnits="userSpaceOnUse"/><linearGradient xlink:href="#a" id="F" x1="599.832" x2="721.008" y1="264.346" y2="264.346" gradientUnits="userSpaceOnUse"/><linearGradient xlink:href="#a" id="G" x1="599.832" x2="721.008" y1="264.346" y2="264.346" gradientUnits="userSpaceOnUse"/><linearGradient xlink:href="#a" id="H" x1="599.832" x2="721.008" y1="264.346" y2="264.346" gradientUnits="userSpaceOnUse"/><linearGradient xlink:href="#a" id="I" x1="599.832" x2="721.008" y1="264.346" y2="264.346" gradientUnits="userSpaceOnUse"/><linearGradient xlink:href="#a" id="J" x1="599.832" x2="721.008" y1="264.346" y2="264.346" gradientUnits="userSpaceOnUse"/><linearGradient xlink:href="#a" id="E" x1="599.832" x2="721.008" y1="264.346" y2="264.346" gradientUnits="userSpaceOnUse"/><linearGradient xlink:href="#a" id="L" x1="599.832" x2="721.008" y1="264.346" y2="264.346" gradientUnits="userSpaceOnUse"/><linearGradient xlink:href="#a" id="M" x1="599.832" x2="721.008" y1="264.346" y2="264.346" gradientUnits="userSpaceOnUse"/><linearGradient xlink:href="#a" id="N" x1="599.832" x2="721.008" y1="264.346" y2="264.346" gradientUnits="userSpaceOnUse"/><linearGradient xlink:href="#a" id="O" x1="599.832" x2="721.008" y1="264.346" y2="264.346" gradientUnits="userSpaceOnUse"/><linearGradient xlink:href="#a" id="P" x1="599.832" x2="721.008" y1="264.346" y2="264.346" gradientUnits="userSpaceOnUse"/><linearGradient xlink:href="#a" id="K" x1="599.832" x2="721.008" y1="264.346" y2="264.346" gradientUnits="userSpaceOnUse"/><linearGradient xlink:href="#a" id="R" x1="599.832" x2="721.008" y1="264.346" y2="264.346" gradientUnits="userSpaceOnUse"/><linearGradient xlink:href="#a" id="S" x1="599.832" x2="721.008" y1="264.346" y2="264.346" gradientUnits="userSpaceOnUse"/><linearGradient xlink:href="#a" id="T" x1="599.832" x2="721.008" y1="264.346" y2="264.346" gradientUnits="userSpaceOnUse"/><linearGradient xlink:href="#a" id="U" x1="599.832" x2="721.008" y1="264.346" y2="264.346" gradientUnits="userSpaceOnUse"/><linearGradient xlink:href="#a" id="V" x1="599.832" x2="721.008" y1="264.346" y2="264.346" gradientUnits="userSpaceOnUse"/><linearGradient xlink:href="#a" id="Q" x1="599.832" x2="721.008" y1="264.346" y2="264.346" gradientUnits="userSpaceOnUse"/><linearGradient xlink:href="#a" id="X" x1="599.832" x2="721.008" y1="264.346" y2="264.346" gradientUnits="userSpaceOnUse"/><linearGradient xlink:href="#a" id="Y" x1="599.832" x2="721.008" y1="264.346" y2="264.346" gradientUnits="userSpaceOnUse"/><linearGradient xlink:href="#a" id="Z" x1="599.832" x2="721.008" y1="264.346" y2="264.346" gradientUnits="userSpaceOnUse"/><linearGradient xlink:href="#a" id="aa" x1="599.832" x2="721.008" y1="264.346" y2="264.346" gradientUnits="userSpaceOnUse"/><linearGradient xlink:href="#a" id="ab" x1="599.832" x2="721.008" y1="264.346" y2="264.346" gradientUnits="userSpaceOnUse"/><linearGradient xlink:href="#a" id="W" x1="599.832" x2="721.008" y1="264.346" y2="264.346" gradientUnits="userSpaceOnUse"/><linearGradient xlink:href="#a" id="ad" x1="599.832" x2="721.008" y1="264.346" y2="264.346" gradientUnits="userSpaceOnUse"/><linearGradient xlink:href="#a" id="ae" x1="599.832" x2="721.008" y1="264.346" y2="264.346" gradientUnits="userSpaceOnUse"/><linearGradient xlink:href="#a" id="af" x1="599.832" x2="721.008" y1="264.346" y2="264.346" gradientUnits="userSpaceOnUse"/><linearGradient xlink:href="#a" id="ag" x1="599.832" x2="721.008" y1="264.346" y2="264.346" gradientUnits="userSpaceOnUse"/><linearGradient xlink:href="#a" id="ah" x1="599.832" x2="721.008" y1="264.346" y2="264.346" gradientUnits="userSpaceOnUse"/><linearGradient xlink:href="#a" id="ac" x1="599.832" x2="721.008" y1="264.346" y2="264.346" gradientUnits="userSpaceOnUse"/><linearGradient xlink:href="#a" id="ai" x1="599.832" x2="721.008" y1="264.346" y2="264.346" gradientTransform="translate(-1.81 1.474)" gradientUnits="userSpaceOnUse"/><linearGradient xlink:href="#a" id="aj" x1="599.832" x2="721.008" y1="264.346" y2="264.346" gradientTransform="translate(-1.81 1.474)" gradientUnits="userSpaceOnUse"/><radialGradient xlink:href="#b" id="ap" cx="221.445" cy="226.331" r="300" fx="221.445" fy="226.331" gradientTransform="matrix(1.35322 0 0 1.34893 -77.63 -85.747)" gradientUnits="userSpaceOnUse"/></defs><g style="display:inline"><path d="M300 658.5s298.5-112.32 298.5-397.772V2.176H1.5v258.552C1.5 546.18 300 658.5 300 658.5" style="fill:#2b5df2;fill-opacity:1;fill-rule:evenodd;stroke:none;stroke-width:1px;stroke-linecap:butt;stroke-linejoin:miter;stroke-opacity:1"/><g style="opacity:1;display:inline"><path d="M200 1.322V605.97c38.88 22.843 100 52.53 100 52.53s61.121-29.688 100-52.53V2.188z" style="fill:#fcef3c;fill-opacity:1;fill-rule:evenodd;stroke:#000;stroke-width:3;stroke-linecap:butt;stroke-linejoin:miter;stroke-miterlimit:4;stroke-dasharray:none;stroke-opacity:1"/><path d="M0 0h600v660H0z" style="fill:none;fill-opacity:1;fill-rule:nonzero;stroke:none;stroke-width:3;stroke-linecap:round;stroke-linejoin:round;stroke-miterlimit:4;stroke-dasharray:none;stroke-opacity:1"/></g><g style="stroke:url(#c)" transform="matrix(1.55546 0 0 1.00275 -734.029 49.54)"><g style="stroke:url(#e);display:inline"><g style="fill:#2b5df2;stroke:url(#f)" transform="translate(3.893 -1.725)"><g style="stroke:url(#g)" transform="matrix(.27701 0 0 .68263 576.283 62.619)"><path d="M143.61 173.87c-10.008 7.544-24.988 8.847-30.912 1.404 0 0 10.062 2.356 14.613-3.091 6.176-7.392 6.4-10.884 7.306-9.274z" style="fill:#2b5df2;fill-opacity:1;fill-rule:evenodd;stroke:url(#h);stroke-width:5.52401187;stroke-linecap:butt;stroke-linejoin:miter;stroke-miterlimit:4;stroke-dasharray:none;stroke-opacity:1;display:inline"/><path d="M124.5 142.114c-8.763-6.845-19.332-6.062-23.605 5.058-1.132-.424.478-13.929 5.34-18.828 4.998-5.037 6.322-6.815 13.77-7.025 7.446-.211 16.86 4.215 16.86 4.215z" style="fill:#2b5df2;fill-opacity:1;fill-rule:evenodd;stroke:url(#i);stroke-width:5.52401187;stroke-linecap:butt;stroke-linejoin:miter;stroke-miterlimit:4;stroke-dasharray:none;stroke-opacity:1;display:inline"/><path d="M133.43 107.4c-4.596-12.573-7.769-25.738-27.54-23.605 0 0 9.868-6.228 21.358-4.496 14.197 2.14 24.64 19.382 23.886 19.671z" style="fill:#2b5df2;fill-opacity:1;fill-rule:evenodd;stroke:url(#j);stroke-width:5.52401187;stroke-linecap:butt;stroke-linejoin:miter;stroke-miterlimit:4;stroke-dasharray:none;stroke-opacity:1;display:inline"/><path d="M166.028 99.813c5.989-5.72 5.35-18.068 7.307-27.82 0 0 7.658 6.673 9.554 16.017 1.897 9.344-1.967 21.358-1.967 21.358z" style="fill:#2b5df2;fill-opacity:1;fill-rule:evenodd;stroke:url(#k);stroke-width:5.52401187;stroke-linecap:butt;stroke-linejoin:miter;stroke-miterlimit:4;stroke-dasharray:none;stroke-opacity:1;display:inline"/><path d="m216.956 214.617-9.836-4.848c3.567-3.799-.505-6.834-4.215-9.906-2.203-3.65-6.236-3.685-10.68-2.107-.64-6.972-5.697-8.264-11.52-8.571-1.298-10.634-6.611-10.024-11.523-10.539-1.979-5.43-5.562-6.455-8.852-5.62-1.083-1.963-4.041-2.519-11.1 0 0 0-4.496 7.728-9.554 5.62-5.059-2.107-9.977-8.15-11.803-12.364-1.827-4.216 6.885-3.373 6.744-8.431-.14-5.058-3.512-8.712-7.306-11.803-3.794-3.09-9.274.281-8.29-7.025.983-7.307 1.44-13.98 6.323-17.845 4.882-3.864 13.207 2.389 13.207 2.389s5.445-.984 4.444-4.18c-1.001-3.197-8.448-8.606-5.568-12.4 5.761-7.588 10.117-11.17 17.143-11.241s4.426 10.89 8.852 11.803 5.234-10.047 12.224-7.307 16.101 8.218 13.77 15.737c-1.98 6.389-4.325 4.17-3.555 6.448 1.076 3.183-1.919.37 9.456 10.835 4.833 4.446 11.5 10.77 19.129 16.76 7.628 5.988 16.383 14.194 23.915 20.225 7.533 6.03 14.687 8.482 19.676 12.516 4.99 4.035 8.097 6.562 8.097 6.562z" style="fill:#e20909;fill-opacity:1;fill-rule:evenodd;stroke:url(#l);stroke-width:5.52401187;stroke-linecap:butt;stroke-linejoin:miter;stroke-miterlimit:4;stroke-dasharray:none;stroke-opacity:1;display:inline"/><path d="M161.884 420.906c1.088-14.822-14.085-23.326-28.813-23.25 0 0 17.586-6.805 27.62-3.178 10.036 3.626 13.712 9.339 13.712 9.339z" style="fill:#2b5df2;fill-opacity:1;fill-rule:evenodd;stroke:url(#m);stroke-width:5.52401187;stroke-linecap:butt;stroke-linejoin:miter;stroke-miterlimit:4;stroke-dasharray:none;stroke-opacity:1;display:inline"/><path d="M154.333 443.161c-13.07-11.426-21.685.106-32.986 5.167 0 0 7.352-17.437 16.294-22.852s19.474 1.193 19.474 1.193z" style="fill:#2b5df2;fill-opacity:1;fill-rule:evenodd;stroke:url(#n);stroke-width:5.52401187;stroke-linecap:butt;stroke-linejoin:miter;stroke-miterlimit:4;stroke-dasharray:none;stroke-opacity:1;display:inline"/><path d="M164.269 463.231c-5.28 2.46-9.802 7.955-11.923 23.05 0 0-2.186-14.009-.795-21.46s6.359-8.346 6.359-8.346z" style="fill:#2b5df2;fill-opacity:1;fill-rule:evenodd;stroke:url(#o);stroke-width:5.52401187;stroke-linecap:butt;stroke-linejoin:miter;stroke-miterlimit:4;stroke-dasharray:none;stroke-opacity:1;display:inline"/><path d="M194.472 465.616c-4.496 4.583-4.907 10.917-1.987 18.678 0 0-7.948-10.233-9.935-15.499s1.987-5.564 1.987-5.564z" style="fill:#2b5df2;fill-opacity:1;fill-rule:evenodd;stroke:url(#p);stroke-width:5.52401187;stroke-linecap:butt;stroke-linejoin:miter;stroke-miterlimit:4;stroke-dasharray:none;stroke-opacity:1;display:inline"/><path d="M273.313 339.367c-5.847.002-11.483.342-16.462 1.158-26.556 4.356-34.833 22.472-34.833 22.472s18.115 26.552 8.982 38.776-34.157 18.494-43.847 10.11l-7.292-6.323c-3.565-3.085-2.11-7.849-7.73-5.039s-10.815 10.725-11.956 13.614c-3.173 8.036 7.887 8.45 7.887 8.45l-3.38 2.786c-.32.719-3.883-5.117-7.292-2.785-5.415 3.703-7.308 13.205-7.167 19.247.14 6.042 7.73 4.914 7.73 4.914l1.69 6.165s-4.943.995-4.381 5.07 6.927 8.28 9.983 9.264 4.632-4.757 4.632-4.757l12.237-2.253s-3.102 3.916 1.816 5.602c4.917 1.686 8.746 2.688 13.207 1.283s1.283-7.887 1.283-7.887c32.505-9.58 67.579-15.401 109.038-11.924-12.448-15.81-15.61-34.98-14.616-55.646 16.252-3.175 25.67.469 34.27 4.945 4.147-4.592 10.694-11.947 8.044-17.025-5.135-9.839-13.337-22.11-17.495-35.96-10.884-1.823-28.432-4.26-44.348-4.257z" style="fill:#e20909;fill-opacity:1;fill-rule:evenodd;stroke:url(#q);stroke-width:5.52401187;stroke-linecap:butt;stroke-linejoin:miter;stroke-miterlimit:4;stroke-dasharray:none;stroke-opacity:1;display:inline"/><path d="M124.328 237.298c-2.452-6.44-9.972-12.1-19.275-17.486 0 0 12.866 1.39 20.467 3.974 7.6 2.583 9.936 6.359 9.936 6.359z" style="fill:#2b5df2;fill-opacity:1;fill-rule:evenodd;stroke:url(#r);stroke-width:5.52401187;stroke-linecap:butt;stroke-linejoin:miter;stroke-miterlimit:4;stroke-dasharray:none;stroke-opacity:1;display:inline"/><path d="M113.598 260.945c-10.234-7.085-17.934 1.024-26.23 5.564 0 0 7.163-13.167 14.516-17.836 7.352-4.67 14.893-.843 14.893-.843z" style="fill:#2b5df2;fill-opacity:1;fill-rule:evenodd;stroke:url(#s);stroke-width:5.52401187;stroke-linecap:butt;stroke-linejoin:miter;stroke-miterlimit:4;stroke-dasharray:none;stroke-opacity:1;display:inline"/><path d="M120.552 284.989c-7.213.069-14.89 1.814-25.434 13.91 0 0-.348-9.688 4.967-16.295 5.316-6.607 16.294-10.134 16.294-10.134z" style="fill:#2b5df2;fill-opacity:1;fill-rule:evenodd;stroke:url(#t);stroke-width:5.52401187;stroke-linecap:butt;stroke-linejoin:miter;stroke-miterlimit:4;stroke-dasharray:none;stroke-opacity:1;display:inline"/><path d="M132.075 294.55c-.562 3.909-4.917 7.957-11.386 10.39 0 0 11.487.422 16.158-1.869 4.67-2.291 3.576-5.961 3.576-5.961z" style="fill:#2b5df2;fill-opacity:1;fill-rule:evenodd;stroke:url(#u);stroke-width:5.52401187;stroke-linecap:butt;stroke-linejoin:miter;stroke-miterlimit:4;stroke-dasharray:none;stroke-opacity:1;display:inline"/><path d="M336.351 549.471c3.506 2.249 5.009 5.9-1.987 15.5 0 0 9.836-4.67 13.115-8.744s0-7.55 0-7.55z" style="fill:#2b5df2;fill-opacity:1;fill-rule:evenodd;stroke:url(#v);stroke-width:5.52401187;stroke-linecap:butt;stroke-linejoin:miter;stroke-miterlimit:4;stroke-dasharray:none;stroke-opacity:1;display:inline"/><path d="M312.506 544.305c-.443 10.31-10.166 9.82-21.063 14.307 0 0 14.804 3.974 21.858-.398s10.333-8.345 10.333-8.345z" style="fill:#2b5df2;fill-opacity:1;fill-rule:evenodd;stroke:url(#w);stroke-width:5.52401187;stroke-linecap:butt;stroke-linejoin:miter;stroke-miterlimit:4;stroke-dasharray:none;stroke-opacity:1;display:inline"/><path d="M308.532 539.138c-9.747-10.988-22.513-.845-34.178 1.59 0 0 11.426-11.923 20.666-14.705s16.294 3.577 16.294 3.577z" style="fill:#2b5df2;fill-opacity:1;fill-rule:evenodd;stroke:url(#x);stroke-width:5.52401187;stroke-linecap:butt;stroke-linejoin:miter;stroke-miterlimit:4;stroke-dasharray:none;stroke-opacity:1;display:inline"/><path d="M315.288 515.69c-3.935-17.374-19.706-15.022-32.588-17.486 0 0 19.076-6.26 29.011-6.359 9.936-.099 10.73 5.962 10.73 5.962z" style="fill:#2b5df2;fill-opacity:1;fill-rule:evenodd;stroke:url(#y);stroke-width:5.52401187;stroke-linecap:butt;stroke-linejoin:miter;stroke-miterlimit:4;stroke-dasharray:none;stroke-opacity:1;display:inline"/><path d="M252.496 212.062s-41.53 17.288-69.151 23.05-42.922-1.987-42.922-1.987 1.391-8.544-5.564-7.55c-6.954.993-11.723 5.762-14.307 10.73-1.291 2.483 3.08 3.974 4.198 6.433s-1.813 5.092-1.813 5.092-6.359-8.147-9.538-3.18-6.558 11.128-4.372 17.884c1.093 3.378 5.167-.298 8.172 1.143 3.006 1.44 2.559 6.806 2.559 6.806s-7.551-2.683-6.36 2.782c1.193 5.464.796 11.127 5.167 14.704 4.372 3.577 6.359-4.371 6.359-4.371l6.756 5.563s-4.57 3.975-.795 7.154c3.776 3.18 8.147 5.564 11.923 5.564s2.782-7.551 2.782-7.551c3.184-3.832 7.023-6.354 12.32-5.961 8.311 3.097 7.727 8.862 5.564 15.102 10.604.277 18.37-5.12 27.024-8.744 6.534.994 8.3 3.776 6.359 7.949 14.48 4.624 26.48-1.924 38.947-6.359 2.67 2.174 3.608 5.386.994 10.73q21.46-31.793 42.92-24.64c11.377 16.94 22.634 27.68 35.57 39.941-2.213 22.61 12.235 42.596 19.871 57.228 3.687 7.064-10.486 18.623-11.128 20.865-4.346 15.183-1.201 39.302-.136 38.947 3.379-6.846 8.874-9.457 15.238-10.333-.603 4.913-4.064 7.682.795 16.692 6.496 6.677 13.47 12.16 21.46 15.102-9.36 11.923-15.489 26.009-23.845 38.947-2.186 3.386-4.371 1.788-7.948 0s-3.406-7.591-6.359-7.154c-7.155 1.06-16.592 18.996-13.038 25.764 2.628 5.004 5.194-.391 6.864 1.91 1.67 2.303 2.048 5.475-.184 7.3-2.232 1.824-5.564-5.545-8.744-1.968s-2.72 9.396-1.726 13.464c.994 4.069 4.717 1.546 4.717 1.546l1.59 2.46c-1.48.948-2.44.532-1.819 3.033.942 3.796 9.18 10.211 12.609 5.45 1.32-1.833 1.725-2.895 1.778-2.886l6.956-1.331c1.63-.312-.342 5.312.72 5.582 4.768 1.213 15.957 1.06 18.936-1.502 4.073-3.504-1.88-8.663 4.873-7.904 0 0 1.75 1.254 3.142.353 25.23-16.329 42.656-42.13 44.4-48.091 1.771-6.057-.994-5.564 2.186-8.147s10.531-2.186 10.531-2.186 13.61-6.1 1.59-14.307c-9.7-6.624-19.112-38.198-15.897-42.127-.751-10.75-7.057-20.49-13.512-30.204-1.87-9.636 1.118-16.034 5.564-21.46 2.542-.916 39.189 44.17 51.664 59.612 15.866 19.64 37.358-11.922 37.358-11.922s14.307-19.474 13.313-44.312c-.993-24.84-17.287-55.043-17.287-55.043-3.558-15.93 6.473-27.976 17.486-39.742-10.512 4.912-21.462 5.015-30.999 20.666 0 0-2.583-11.128-.397-23.05s14.307-19.871 14.307-19.871c-14.232 7.121-26.181 14.624-27.82 23.845-4.43-26.86 8.163-50.476 25.833-73.125-18.4 11.853-34.634 25.44-42.524 45.703-10.064-47.994 27.462-70.726 68.754-107.7 30.99-27.751 6.358-52.46 6.358-52.46-23.676-6.906-43.305 1.05-59.613 9.935 0 0-15.62-16.293-25.037-.795-10.922 17.975-19.657 27.087-14.704 47.69-2.554-3.405 22.025-20.508 40.934-20.665 15.222-.126 4.371-18.281 4.371-18.281s38.55-16.493 46.101-9.141 10.238 16.447-9.14 34.575l-49.28 46.101c-23.768 22.234-30.137 45.862-16.692 83.856 14.324 40.48 56.905 72.086 56.235 98.957s1.95 28.513-5.763 40.537-13.74 24.442-28.217 6.557-33.651-47.705-49.081-69.548c-25.008-35.402-36.016-47.243-45.902-75.709-9.886-28.465 2.384-23.447 1.987-40.139s-3.577-26.627-3.577-26.627z" style="fill:#e20909;fill-opacity:1;fill-rule:evenodd;stroke:url(#z);stroke-width:5.52401187;stroke-linecap:butt;stroke-linejoin:miter;stroke-miterlimit:4;stroke-dasharray:none;stroke-opacity:1;display:inline"/><path d="M320.37 135.932c-19.938 2.844-38.988 9.392-60.7 7.868-29.46-2.067-20.884-16.156-16.86-20.795 3.834-4.421 18.955 10.362 32.035 15.175 15.176 5.584 30.352-1.493 45.525-2.248z" style="fill:#2b5df2;fill-opacity:1;fill-rule:evenodd;stroke:url(#A);stroke-width:5.52401187;stroke-linecap:butt;stroke-linejoin:miter;stroke-miterlimit:4;stroke-dasharray:none;stroke-opacity:1;display:inline"/><path d="M310.816 123.005c-4.789-5.09-14.196-5.348-23.746-4.075-1.6-2.183-8.602-6.27-26.557-5.48-6.47-8.206-7.557-21.16.281-26.135 7.172-4.551 20.207-2.446 21.639-3.372 8.389-5.425 4.637-12.646 23.043-15.737 18.407-3.09 50.583 3.372 50.583 3.372s1.73 4.191 8.334 3.629 3.4 3.842 6.631 7.776c3.232 3.935 5.653-.475 2.773 6.2s-2.844 6.844-2.844 6.844-5.76 17.072 0 28.945c5.761 11.873 25.854 20.233 25.854 20.233-9.09.48-16.102 2.147-19.952 5.62-2.155 1.687-4.018 4.935-3.091 7.588 2.188 6.269 14.05 16.861 14.05 16.861s-4.847-2.248-7.306 3.653c-2.459 5.902-2.53 19.953-2.53 19.953s-15.596.2-19.39 10.678c-5.252 14.509 7.454 36.403 10.117 32.598 0 0-8.29 3.162-14.613.844s-12.083-10.117-12.083-10.117c-6.071 1.1-11.149 4.064-13.49 8.15-39.759-13.063-50.15 3.241-59.856 20.233-3.014 3.05-6.729 4.349-11.24 3.653 6.01-7.607 6.935-16.485 7.025-25.573-16.706 1.055-32.194 15.16-53.956 12.084 11.265-7.596 17.183-17.332 13.489-30.912-9.257-5.678-22.539-6.526-35.408-7.868 39.44-8.394 64.137-18.398 69.973-33.723l25.854-2.248c9.312-5.572 9.567-10.322 10.96-15.175-6.32-6.702-16.72-1.117-25.573-3.653-3.732-1.07-3.983-5.9-2.211-7.222.886-.66 1.861-3.065 3.382-3.386 1.522-.32 3.589 1.442 5.535 1.248 7.254-.722 30.281-1.158 37.695-2.443 4.536-8.307 2.63-16.662-3.372-23.043z" style="fill:#e20909;fill-opacity:1;fill-rule:evenodd;stroke:url(#B);stroke-width:5.52401187;stroke-linecap:butt;stroke-linejoin:miter;stroke-miterlimit:4;stroke-dasharray:none;stroke-opacity:1;display:inline"/><path d="M305.58 344.72c-3.34-.06-5.743 1.498-8.512 2.409 10.127 8.032 20.215 16.072 20.374 26.634-7.917 16.534.196 20.044 10.891 21.47 4.078-4.599 9.223-11.05 6.823-15.65-3.693-7.074-8.952-15.422-13.176-24.692a104 104 0 0 0-6.26-6.04c-4.373-3.06-7.542-4.086-10.14-4.132z" style="fill:#e20909;fill-opacity:1;fill-rule:evenodd;stroke:url(#C);stroke-width:5.52401187;stroke-linecap:butt;stroke-linejoin:miter;stroke-miterlimit:4;stroke-dasharray:none;stroke-opacity:1;display:inline"/><path d="M322.618 87.554c.003 1.977-3.378 3.58-7.55 3.58-4.173 0-7.555-1.603-7.552-3.58-.003-1.976 3.379-3.58 7.551-3.58s7.554 1.604 7.551 3.58z" style="fill:#e20909;fill-opacity:1;fill-rule:evenodd;stroke:url(#D);stroke-width:3.00000024;stroke-linecap:butt;stroke-linejoin:miter;stroke-miterlimit:4;stroke-dasharray:none;stroke-opacity:1;display:inline"/><g style="fill:#2b5df2;stroke:url(#E);display:inline" transform="matrix(.26683 -.03596 .10473 .35797 280.283 31.057)"><path d="M29.739 62.946c-2.69 6.35-6.016 8.922-9.244 12.043 3.619.016 7.225-.679 10.963-3.814.064 9.675 1.458 12.982 4.819 16.232 3.323-3.149 4.859-6.547 4.847-16.232 3.738 3.135 7.335 3.83 10.954 3.814-3.228-3.121-6.545-5.693-9.235-12.043z" style="fill:#2b5df2;fill-opacity:1;fill-rule:evenodd;stroke:url(#F);stroke-width:.90182;stroke-linecap:butt;stroke-linejoin:miter;stroke-miterlimit:4;stroke-dasharray:none;stroke-opacity:1"/><path d="M21.707 58.178h29.159v4.772H21.707z" style="fill:#2b5df2;fill-opacity:1;fill-rule:nonzero;stroke:url(#G);stroke-width:.90182;stroke-linecap:butt;stroke-linejoin:miter;marker:none;marker-start:none;marker-mid:none;marker-end:none;stroke-miterlimit:4;stroke-dasharray:none;stroke-dashoffset:0;stroke-opacity:1;visibility:visible;display:inline;overflow:visible"/><path d="M126.281 7.938C91.34 45.032 77.89 87.763 105.656 141.28c6.342 16.259 11.339 33.045 10.313 52.25h20.625c-1.026-19.205 3.97-35.991 10.312-52.25 27.767-53.518 14.317-96.249-20.625-133.343z" style="fill:#2b5df2;fill-opacity:1;fill-rule:evenodd;stroke:url(#H);stroke-width:2.99999666;stroke-linecap:butt;stroke-linejoin:miter;stroke-miterlimit:4;stroke-dasharray:none;stroke-opacity:1" transform="translate(-1.678)scale(.3006)"/><path d="M52.25 100c-35.235.845-58.727 60.018 15.219 88.875-24.44-47.874 20.895-30.132 26.875 4.656h17.531c-9.68-70.66-37.052-94.073-59.625-93.531z" style="fill:#2b5df2;fill-opacity:1;fill-rule:evenodd;stroke:url(#I);stroke-width:2.99999666;stroke-linecap:butt;stroke-linejoin:miter;stroke-miterlimit:4;stroke-dasharray:none;stroke-opacity:1" transform="translate(-1.678)scale(.3006)"/><path d="M198.969 100c-22.302.418-48.765 24.284-58.25 93.531h17.5c5.98-34.788 51.346-52.53 26.906-4.656 74.894-29.227 49.821-89.549 13.844-88.875z" style="fill:#2b5df2;fill-opacity:1;fill-rule:evenodd;stroke:url(#J);stroke-width:2.99999666;stroke-linecap:butt;stroke-linejoin:miter;stroke-miterlimit:4;stroke-dasharray:none;stroke-opacity:1" transform="translate(-1.678)scale(.3006)"/></g><g style="fill:#2b5df2;stroke:url(#K);display:inline" transform="matrix(.4364 .11188 -.07906 .42841 331.259 27.567)"><path d="M29.739 62.946c-2.69 6.35-6.016 8.922-9.244 12.043 3.619.016 7.225-.679 10.963-3.814.064 9.675 1.458 12.982 4.819 16.232 3.323-3.149 4.859-6.547 4.847-16.232 3.738 3.135 7.335 3.83 10.954 3.814-3.228-3.121-6.545-5.693-9.235-12.043z" style="fill:#2b5df2;fill-opacity:1;fill-rule:evenodd;stroke:url(#L);stroke-width:.90182;stroke-linecap:butt;stroke-linejoin:miter;stroke-miterlimit:4;stroke-dasharray:none;stroke-opacity:1"/><path d="M21.707 58.178h29.159v4.772H21.707z" style="fill:#2b5df2;fill-opacity:1;fill-rule:nonzero;stroke:url(#M);stroke-width:.90182;stroke-linecap:butt;stroke-linejoin:miter;marker:none;marker-start:none;marker-mid:none;marker-end:none;stroke-miterlimit:4;stroke-dasharray:none;stroke-dashoffset:0;stroke-opacity:1;visibility:visible;display:inline;overflow:visible"/><path d="M126.281 7.938C91.34 45.032 77.89 87.763 105.656 141.28c6.342 16.259 11.339 33.045 10.313 52.25h20.625c-1.026-19.205 3.97-35.991 10.312-52.25 27.767-53.518 14.317-96.249-20.625-133.343z" style="fill:#2b5df2;fill-opacity:1;fill-rule:evenodd;stroke:url(#N);stroke-width:2.99999666;stroke-linecap:butt;stroke-linejoin:miter;stroke-miterlimit:4;stroke-dasharray:none;stroke-opacity:1" transform="translate(-1.678)scale(.3006)"/><path d="M52.25 100c-35.235.845-58.727 60.018 15.219 88.875-24.44-47.874 20.895-30.132 26.875 4.656h17.531c-9.68-70.66-37.052-94.073-59.625-93.531z" style="fill:#2b5df2;fill-opacity:1;fill-rule:evenodd;stroke:url(#O);stroke-width:2.99999666;stroke-linecap:butt;stroke-linejoin:miter;stroke-miterlimit:4;stroke-dasharray:none;stroke-opacity:1" transform="translate(-1.678)scale(.3006)"/><path d="M198.969 100c-22.302.418-48.765 24.284-58.25 93.531h17.5c5.98-34.788 51.346-52.53 26.906-4.656 74.894-29.227 49.821-89.549 13.844-88.875z" style="fill:#2b5df2;fill-opacity:1;fill-rule:evenodd;stroke:url(#P);stroke-width:2.99999666;stroke-linecap:butt;stroke-linejoin:miter;stroke-miterlimit:4;stroke-dasharray:none;stroke-opacity:1" transform="translate(-1.678)scale(.3006)"/></g><g style="fill:#2b5df2;stroke:url(#Q);display:inline" transform="matrix(.39538 .03268 .00718 .44786 301.55 24.442)"><path d="M29.739 62.946c-2.69 6.35-6.016 8.922-9.244 12.043 3.619.016 7.225-.679 10.963-3.814.064 9.675 1.458 12.982 4.819 16.232 3.323-3.149 4.859-6.547 4.847-16.232 3.738 3.135 7.335 3.83 10.954 3.814-3.228-3.121-6.545-5.693-9.235-12.043z" style="fill:#2b5df2;fill-opacity:1;fill-rule:evenodd;stroke:url(#R);stroke-width:.90182;stroke-linecap:butt;stroke-linejoin:miter;stroke-miterlimit:4;stroke-dasharray:none;stroke-opacity:1"/><path d="M21.707 58.178h29.159v4.772H21.707z" style="fill:#2b5df2;fill-opacity:1;fill-rule:nonzero;stroke:url(#S);stroke-width:.90182;stroke-linecap:butt;stroke-linejoin:miter;marker:none;marker-start:none;marker-mid:none;marker-end:none;stroke-miterlimit:4;stroke-dasharray:none;stroke-dashoffset:0;stroke-opacity:1;visibility:visible;display:inline;overflow:visible"/><path d="M126.281 7.938C91.34 45.032 77.89 87.763 105.656 141.28c6.342 16.259 11.339 33.045 10.313 52.25h20.625c-1.026-19.205 3.97-35.991 10.312-52.25 27.767-53.518 14.317-96.249-20.625-133.343z" style="fill:#2b5df2;fill-opacity:1;fill-rule:evenodd;stroke:url(#T);stroke-width:2.99999666;stroke-linecap:butt;stroke-linejoin:miter;stroke-miterlimit:4;stroke-dasharray:none;stroke-opacity:1" transform="translate(-1.678)scale(.3006)"/><path d="M52.25 100c-35.235.845-58.727 60.018 15.219 88.875-24.44-47.874 20.895-30.132 26.875 4.656h17.531c-9.68-70.66-37.052-94.073-59.625-93.531z" style="fill:#2b5df2;fill-opacity:1;fill-rule:evenodd;stroke:url(#U);stroke-width:2.99999666;stroke-linecap:butt;stroke-linejoin:miter;stroke-miterlimit:4;stroke-dasharray:none;stroke-opacity:1" transform="translate(-1.678)scale(.3006)"/><path d="M198.969 100c-22.302.418-48.765 24.284-58.25 93.531h17.5c5.98-34.788 51.346-52.53 26.906-4.656 74.894-29.227 49.821-89.549 13.844-88.875z" style="fill:#2b5df2;fill-opacity:1;fill-rule:evenodd;stroke:url(#V);stroke-width:2.99999666;stroke-linecap:butt;stroke-linejoin:miter;stroke-miterlimit:4;stroke-dasharray:none;stroke-opacity:1" transform="translate(-1.678)scale(.3006)"/></g><g style="fill:#2b5df2;stroke:url(#W);display:inline" transform="matrix(.21909 .19186 -.27244 .35346 395.082 48.585)"><path d="M29.739 62.946c-2.69 6.35-6.016 8.922-9.244 12.043 3.619.016 7.225-.679 10.963-3.814.064 9.675 1.458 12.982 4.819 16.232 3.323-3.149 4.859-6.547 4.847-16.232 3.738 3.135 7.335 3.83 10.954 3.814-3.228-3.121-6.545-5.693-9.235-12.043z" style="fill:#2b5df2;fill-opacity:1;fill-rule:evenodd;stroke:url(#X);stroke-width:.90182;stroke-linecap:butt;stroke-linejoin:miter;stroke-miterlimit:4;stroke-dasharray:none;stroke-opacity:1"/><path d="M21.707 58.178h29.159v4.772H21.707z" style="fill:#2b5df2;fill-opacity:1;fill-rule:nonzero;stroke:url(#Y);stroke-width:.90182;stroke-linecap:butt;stroke-linejoin:miter;marker:none;marker-start:none;marker-mid:none;marker-end:none;stroke-miterlimit:4;stroke-dasharray:none;stroke-dashoffset:0;stroke-opacity:1;visibility:visible;display:inline;overflow:visible"/><path d="M126.281 7.938C91.34 45.032 77.89 87.763 105.656 141.28c6.342 16.259 11.339 33.045 10.313 52.25h20.625c-1.026-19.205 3.97-35.991 10.312-52.25 27.767-53.518 14.317-96.249-20.625-133.343z" style="fill:#2b5df2;fill-opacity:1;fill-rule:evenodd;stroke:url(#Z);stroke-width:2.99999666;stroke-linecap:butt;stroke-linejoin:miter;stroke-miterlimit:4;stroke-dasharray:none;stroke-opacity:1" transform="translate(-1.678)scale(.3006)"/><path d="M52.25 100c-35.235.845-58.727 60.018 15.219 88.875-24.44-47.874 20.895-30.132 26.875 4.656h17.531c-9.68-70.66-37.052-94.073-59.625-93.531z" style="fill:#2b5df2;fill-opacity:1;fill-rule:evenodd;stroke:url(#aa);stroke-width:2.99999666;stroke-linecap:butt;stroke-linejoin:miter;stroke-miterlimit:4;stroke-dasharray:none;stroke-opacity:1" transform="translate(-1.678)scale(.3006)"/><path d="M198.969 100c-22.302.418-48.765 24.284-58.25 93.531h17.5c5.98-34.788 51.346-52.53 26.906-4.656 74.894-29.227 49.821-89.549 13.844-88.875z" style="fill:#2b5df2;fill-opacity:1;fill-rule:evenodd;stroke:url(#ab);stroke-width:2.99999666;stroke-linecap:butt;stroke-linejoin:miter;stroke-miterlimit:4;stroke-dasharray:none;stroke-opacity:1" transform="translate(-1.678)scale(.3006)"/></g><g style="fill:#2b5df2;stroke:url(#ac);display:inline" transform="matrix(.40797 .15118 -.13561 .42203 361.951 36.178)"><path d="M29.739 62.946c-2.69 6.35-6.016 8.922-9.244 12.043 3.619.016 7.225-.679 10.963-3.814.064 9.675 1.458 12.982 4.819 16.232 3.323-3.149 4.859-6.547 4.847-16.232 3.738 3.135 7.335 3.83 10.954 3.814-3.228-3.121-6.545-5.693-9.235-12.043z" style="fill:#2b5df2;fill-opacity:1;fill-rule:evenodd;stroke:url(#ad);stroke-width:.90182;stroke-linecap:butt;stroke-linejoin:miter;stroke-miterlimit:4;stroke-dasharray:none;stroke-opacity:1"/><path d="M21.707 58.178h29.159v4.772H21.707z" style="fill:#2b5df2;fill-opacity:1;fill-rule:nonzero;stroke:url(#ae);stroke-width:.90182;stroke-linecap:butt;stroke-linejoin:miter;marker:none;marker-start:none;marker-mid:none;marker-end:none;stroke-miterlimit:4;stroke-dasharray:none;stroke-dashoffset:0;stroke-opacity:1;visibility:visible;display:inline;overflow:visible"/><path d="M126.281 7.938C91.34 45.032 77.89 87.763 105.656 141.28c6.342 16.259 11.339 33.045 10.313 52.25h20.625c-1.026-19.205 3.97-35.991 10.312-52.25 27.767-53.518 14.317-96.249-20.625-133.343z" style="fill:#2b5df2;fill-opacity:1;fill-rule:evenodd;stroke:url(#af);stroke-width:2.99999666;stroke-linecap:butt;stroke-linejoin:miter;stroke-miterlimit:4;stroke-dasharray:none;stroke-opacity:1" transform="translate(-1.678)scale(.3006)"/><path d="M52.25 100c-35.235.845-58.727 60.018 15.219 88.875-24.44-47.874 20.895-30.132 26.875 4.656h17.531c-9.68-70.66-37.052-94.073-59.625-93.531z" style="fill:#2b5df2;fill-opacity:1;fill-rule:evenodd;stroke:url(#ag);stroke-width:2.99999666;stroke-linecap:butt;stroke-linejoin:miter;stroke-miterlimit:4;stroke-dasharray:none;stroke-opacity:1" transform="translate(-1.678)scale(.3006)"/><path d="M198.969 100c-22.302.418-48.765 24.284-58.25 93.531h17.5c5.98-34.788 51.346-52.53 26.906-4.656 74.894-29.227 49.821-89.549 13.844-88.875z" style="fill:#2b5df2;fill-opacity:1;fill-rule:evenodd;stroke:url(#ah);stroke-width:2.99999666;stroke-linecap:butt;stroke-linejoin:miter;stroke-miterlimit:4;stroke-dasharray:none;stroke-opacity:1" transform="translate(-1.678)scale(.3006)"/></g><path d="M302.686 59.25c.431.53-2.038-.422-7.98-2.354l.03 13.388s17.808-.333 41.621 6.772l.496.151c.345.106.683.207 1.024.313 23.666 7.388 36.272 17.004 36.272 17.004l12.094-9.686c-2.671-1.612-38.006-14.782-37.242-14.84z" style="fill:#2b5df2;stroke:url(#ai);stroke-width:1.5;stroke-miterlimit:4;stroke-dasharray:none;stroke-opacity:1;display:inline"/><path d="M399.24 75.014zm-13.078 9.838s-34.883-24.403-89.904-27.893c-1.015-.094-1.847-.122-1.532-.026l-.03 4.182c.112-.54 48.39 1.658 88.026 26.554 3.34-2.749 3.44-2.817 3.44-2.817zm-91.423-19.46zm87.535 22.607zm-13.643-1.78z" style="fill:#2b5df2;fill-opacity:1;fill-rule:nonzero;stroke:url(#aj);stroke-width:1.5;stroke-linecap:butt;stroke-linejoin:miter;marker:none;marker-start:none;marker-mid:none;marker-end:none;stroke-miterlimit:4;stroke-dasharray:none;stroke-dashoffset:0;stroke-opacity:1;visibility:visible;display:inline;overflow:visible"/></g></g></g></g><g id="ak" style="stroke-width:26.20242691;stroke-miterlimit:4;stroke-dasharray:none"><path d="M407.03 608.7c1.424-61.957 16.75-119.54 45.289-174.11 74.714-157.185 302.92-153.431 252.615 38.812-18.537 70.84-81.509 112.474-156.319 119.615 5.4-18.665 35.1-84.652 11.125-97.562-38.339 1.449-85.945 67.706-97.393 99.301-1.653 4.536-1.19 9.778-3.036 14.24" style="opacity:1;fill:#fcef3c;fill-opacity:1;fill-rule:evenodd;stroke:#000;stroke-width:26.20242691;stroke-linecap:butt;stroke-linejoin:miter;stroke-miterlimit:4;stroke-dasharray:none;stroke-opacity:1;display:inline" transform="matrix(.10897 0 0 .11636 80.823 9.307)"/><g style="opacity:1;stroke-width:26.20242691;stroke-miterlimit:4;stroke-dasharray:none;display:inline"><g style="fill:#fcef3c;fill-opacity:1;stroke:#000;stroke-width:26.20242691;stroke-miterlimit:4;stroke-dasharray:none;stroke-opacity:1"><path d="M350.523 657.372c-1.425-61.956-16.751-119.54-45.29-174.108-74.714-157.186-302.92-153.432-252.615 38.81 18.537 70.84 81.509 112.475 156.319 119.616-5.4-18.665-35.1-84.652-11.124-97.562 38.338 1.449 85.944 67.705 97.392 99.301 1.653 4.536 1.19 9.778 3.036 14.24" style="fill:#fcef3c;fill-opacity:1;fill-rule:evenodd;stroke:#000;stroke-width:26.20242691;stroke-linecap:butt;stroke-linejoin:miter;stroke-miterlimit:4;stroke-dasharray:none;stroke-opacity:1" transform="matrix(.10897 0 0 .11636 76.624 4.12)"/><path d="M393.626 57.12c-78.714 84.85-131.565 182.962-108.781 298.031 12.57 63.484 43.041 122.28 64.53 183.438 13.437 38.37 16.873 78.452 15.282 118.781h66.781c-3.196-40.626 3.807-79.998 15.282-118.781 20.474-61.538 51.625-119.906 64.53-183.438 24.129-118.779-32.506-208.36-108.437-297.656l-4.64-5.918z" style="fill:#fcef3c;fill-opacity:1;fill-rule:nonzero;stroke:#000;stroke-width:26.20242691;stroke-linecap:butt;stroke-linejoin:miter;stroke-miterlimit:4;stroke-dasharray:none;stroke-opacity:1" transform="matrix(.10897 0 0 .11636 76.624 4.12)"/><path d="M331.345 704.401c-13.962 39.13-70.889 110.792-101.125 131.22-7.843 5.297 37.486-3.052 57.78-7.5 26.62-5.835 61.218-34.198 60.407-24.188-.075 45.838 12.811 122.324 46.406 157.468l3.182 3.388 3.287-3.388c33.578-39.17 46.238-108.042 46.406-157.468-.81-10.01 33.788 18.353 60.407 24.187 20.295 4.449 65.623 12.798 57.78 7.5-30.236-20.427-87.131-92.089-101.093-131.219z" style="fill:#fcef3c;fill-opacity:1;fill-rule:evenodd;stroke:#000;stroke-width:26.20242691;stroke-linecap:butt;stroke-linejoin:miter;stroke-miterlimit:4;stroke-dasharray:none;stroke-opacity:1" transform="matrix(.10897 0 0 .11636 76.624 4.12)"/><path d="M239.352 655.379H557.24v51.503H239.352z" style="fill:#fcef3c;fill-opacity:1;stroke:#000;stroke-width:26.20242691;stroke-miterlimit:4;stroke-dasharray:none;stroke-opacity:1" transform="matrix(.10897 0 0 .11636 76.624 4.12)"/></g></g></g><path id="al" d="M-214.793 132.13a53.373 51.42 0 1 1-106.746 0 53.373 51.42 0 1 1 106.746 0z" style="fill:#fcef3c;stroke:#000;stroke-width:4.71858501;stroke-miterlimit:4;stroke-dasharray:none;stroke-opacity:1" transform="matrix(.71728 0 0 .7382 312.35 64.372)"/><use xlink:href="#ak" id="am" width="600" height="660" x="0" y="0" style="stroke-width:3;stroke-miterlimit:4;stroke-dasharray:none" transform="translate(-.042 204.21)"/><use xlink:href="#al" id="an" width="600" height="660" x="0" y="0" style="stroke-width:3;stroke-miterlimit:4;stroke-dasharray:none" transform="translate(0 206.55)"/><use xlink:href="#am" id="ao" width="600" height="660" x="0" y="0" style="stroke-width:3;stroke-miterlimit:4;stroke-dasharray:none" transform="translate(0 205.48)"/><use xlink:href="#ak" width="600" height="660" transform="translate(360 -1.415)"/><use xlink:href="#al" width="600" height="660" transform="translate(360 -1.415)"/><use xlink:href="#am" width="600" height="660" transform="translate(360 -1.415)"/><use xlink:href="#an" width="600" height="660" transform="translate(360 -1.415)"/><use xlink:href="#ao" width="600" height="660" transform="translate(360 -1.415)"/></g><path d="M300 658.5s298.5-112.32 298.5-397.772V2.176H1.5v258.552C1.5 546.18 300 658.5 300 658.5" style="opacity:1;fill:url(#ap);fill-opacity:1;fill-rule:evenodd;stroke:none;stroke-width:1px;stroke-linecap:butt;stroke-linejoin:miter;stroke-opacity:1"/><path d="M300 658.5S1.5 546.18 1.5 260.728V2.176h597v258.552C598.5 546.18 300 658.5 300 658.5z" style="opacity:1;fill:none;fill-opacity:1;fill-rule:evenodd;stroke:#000;stroke-width:3.00000048;stroke-linecap:butt;stroke-linejoin:miter;stroke-miterlimit:4;stroke-dasharray:none;stroke-opacity:1"/></svg>